<svg xmlns="http://www.w3.org/2000/svg" viewBox="0 0 60.53 46.62"><defs><style>.cls-1{fill:#0064af;}</style></defs><title>ca-logo</title><g id="Calque_2" data-name="Calque 2"><g id="background_Groupe_1_Groupe_2_Image" data-name="background + Groupe 1 + Groupe 2 Image"><path class="cls-1" d="M34.88,12.69l.16-.27-.57-.13c-.52-.12-1-.24-1.57-.34a2.32,2.32,0,0,0-.63,0,.72.72,0,0,0-.26.14,1,1,0,0,1-.24.15c-.2.05-.42.09-.63.12l-.41.05a2.71,2.71,0,0,1,.19-.33c.12-.17.28-.31.4-.48a3.74,3.74,0,0,0,.22-.41.74.74,0,0,1,.13-.22,2.22,2.22,0,0,0,.5-.7.94.94,0,0,1,.42-.43l.55-.27a.22.22,0,0,0,.11-.12.4.4,0,0,0-.13-.38,5.63,5.63,0,0,1-1-1.1A1.66,1.66,0,0,1,32,7.61s0,0,0-.07l-.25-1a.09.09,0,0,0,0,0,2.65,2.65,0,0,1-.26-1,1.06,1.06,0,0,1,.18-.85.35.35,0,0,0-.23-.52L30.73,4l-.34-4c2.77.32,5.55.49,8.35.71,0,.35,0,.7,0,1a6.42,6.42,0,0,1-.08,1,5.61,5.61,0,0,0,.41,2.68c.07.18.15.36.24.53a.45.45,0,0,1,0,.44l-.2,0c0,.09.1.21-.08.27l-.09-.21c-.14.2-.32.07-.49.06a1.73,1.73,0,0,1-.39-.11c0-.56,0-1.13,0-1.7,0-.13,0-.18-.16-.18l-.7,0a.19.19,0,0,0-.14.1c-.08.23,0,.33.23.39s.29,0,.37.16,0,0,0,.07a1.71,1.71,0,0,1-.07.75.44.44,0,0,0,0,.11A2.56,2.56,0,0,1,37,7.3l.15.11a.18.18,0,0,1,.07.27c-.1.14-.21.27-.32.4a.53.53,0,0,0,.7,0c.11-.08.19,0,.29,0s.12.11.11.2,0,.13,0,.2a.56.56,0,0,0,.18.5s0,0,0,.08l-.18.07.25.32.05,0-.07-.21a.32.32,0,0,1,.49.1c.06.11.1.2.27.18s.22.11.26.24l.08.22,0,0c.1-.12.2-.24.31-.34A.43.43,0,0,1,40,9.57a.81.81,0,0,1,.71.25,12.3,12.3,0,0,0,2.49,1.63.56.56,0,0,0,.3,0,.58.58,0,0,1,.45.14l.76.56a.18.18,0,0,0,.15,0l1.37-.71a1.12,1.12,0,0,1,.24-.06c0,.21,0,.38,0,.55a.29.29,0,0,0,.16.25,8.08,8.08,0,0,1,.78.57,1.07,1.07,0,0,1,.29.85c0,.22,0,.44.08.66s.09.6.14.9l0,.17a.61.61,0,0,0,.06-.47,3,3,0,0,1-.11-.65c0-.32,0-.64,0-1l3.45-.85a5.66,5.66,0,0,0-.08.66c0,.27-.13.37-.39.43-.58.13-1.15.29-1.72.45A.24.24,0,0,0,49,14a.87.87,0,0,1-.56.43c-.35.13-.34.14-.35.5s0,.49-.07.74c0,0,0,.13,0,.14.18,0,.13.19.16.31l.16,0c.06.19-.1.2-.26.26l.25.12.12.07-.12.15-.05,0,.17.08-.09.27-.37,0v.06a.56.56,0,0,1,.14.07.23.23,0,0,1,.08.13s-.05.08-.09.09l-.59.16-.16.06.37.19a1,1,0,0,1-.24.09,6.23,6.23,0,0,1-.66,0,.63.63,0,0,0-.43.15l-.4.32a.56.56,0,0,1,0,.65l-.44.67s-.05.1,0,.12c.12.24,0,.49.07.74-.31,0-.19-.31-.3-.46l-.72,1.5s0,0,0,0a1,1,0,0,1,.42,1.16,4.15,4.15,0,0,1-.49,1.18.36.36,0,0,0,0,.24c.19.86.39,1.71.57,2.58a1,1,0,0,1-.11.72,12.86,12.86,0,0,0-.74,1.56c-.4,1.05-.79,2.11-1.13,3.18a8.5,8.5,0,0,1-1.35,2.58A12.15,12.15,0,0,1,39.94,37a7,7,0,0,1-1.66,1,3.12,3.12,0,0,1-1.76.07,4.59,4.59,0,0,1-2-1,2.55,2.55,0,0,1-.73-.84c-.46-.83-.91-1.66-1.41-2.47a24.71,24.71,0,0,1-2-4.44c-.08-.2-.14-.41-.23-.61a1.92,1.92,0,0,1-.1-1.13,6.07,6.07,0,0,1,.22-1.23.64.64,0,0,0,0-.23c0-.88,0-1.75,0-2.63a.92.92,0,0,0-.06-.29c0-.09-.1-.11-.18,0a.23.23,0,0,0-.06.08c-.06.19-.2.17-.34.12a6.55,6.55,0,0,1-2.29-1.25.9.9,0,0,1-.36-.8,2.46,2.46,0,0,1,.09-.8.23.23,0,0,0,0-.1,12.64,12.64,0,0,1,.19-1.52.31.31,0,0,1,0-.14,2,2,0,0,0,.16-.57c.05-.21.15-.41.22-.62a1.1,1.1,0,0,0,.12-.67,4.45,4.45,0,0,0-.18-.5c-.07-.17-.14-.33-.22-.49s0-.37.12-.51a.39.39,0,0,0,.09-.26,1.33,1.33,0,0,1,0-.19.36.36,0,0,1,.16-.29.81.81,0,0,0,.26-.38.42.42,0,0,0-.08-.44c-.08-.08-.15-.17,0-.26s0-.07,0-.1a.17.17,0,0,1,.21-.11c.15,0,.23,0,.27-.17a.23.23,0,0,1,.26-.2,4.86,4.86,0,0,0,1-.07c.3,0,.59-.07.89-.11a.18.18,0,0,0,.18-.14.24.24,0,0,1,.28-.2,1.57,1.57,0,0,0,1-.33,1,1,0,0,1,.68-.08.29.29,0,0,1,.11,0,3.88,3.88,0,0,0,1.17.3l.39.06c.16,0,.34,0,.39.24Zm5.51,22.7,0,0a.59.59,0,0,0,.13-.12c.14-.23.27-.47.39-.71s.22-.53.36-.79a1.91,1.91,0,0,0,.29-1,.81.81,0,0,1,0-.23,22.11,22.11,0,0,0,.43-2.28,6.83,6.83,0,0,0,.06-2A1.15,1.15,0,0,0,42,28L42,28c-.28.17-.33.16-.44-.14-.17-.47-.32-.95-.47-1.42l0-.12a9.59,9.59,0,0,0,.09,1c.08.67.15,1.35.26,2a3.76,3.76,0,0,1,0,1.61.31.31,0,0,0,0,.21.61.61,0,0,1,0,.47,11.35,11.35,0,0,0-.27,1.16,5.24,5.24,0,0,1-.56,1.93,2.33,2.33,0,0,0-.17.45A.65.65,0,0,0,40.39,35.39Zm-9.63-13H30.6s-.1,0-.14,0a7.08,7.08,0,0,1-.84-.26.52.52,0,0,1-.26-.71.24.24,0,0,1,.1-.09c.15-.09.31-.17.46-.28s.08-.5,0-.57a.14.14,0,0,0-.08,0l-.46.07L29,20.6c-.14,0-.28.06-.42.11s-.36,0-.35-.22a1.32,1.32,0,0,1,.07-.27.5.5,0,0,0,0-.13c0-.3,0-.61,0-.91,0,0,0-.07-.06-.11s-.05.07-.06.1c0,.27,0,.53,0,.8a.87.87,0,0,1,0,.14,3.66,3.66,0,0,0-.09.45c0,.23.11.35.34.35a1.17,1.17,0,0,0,.28-.06l1-.27a.19.19,0,0,1,.16.06.19.19,0,0,1,0,.15.56.56,0,0,1-.41.38.43.43,0,0,0-.32.47.68.68,0,0,0,.37.6l.39.2a1,1,0,0,0,.62.11A.29.29,0,0,0,30.76,22.37ZM29,14.24l-.06,0a.63.63,0,0,0,0,.17.76.76,0,0,1,.07.65.2.2,0,0,0,.09.24,3.51,3.51,0,0,0,.93.47,2.44,2.44,0,0,0,1,.12,1.33,1.33,0,0,1,.68.09.15.15,0,0,0,.19,0l2.58-2.32a1,1,0,0,0,.1-.12l0,0a1.08,1.08,0,0,0-.17.08,1.62,1.62,0,0,0-.12.12l-2.48,2.16a.2.2,0,0,1-.15,0,6.42,6.42,0,0,0-.64-.13,4.47,4.47,0,0,1-1.5-.28.76.76,0,0,1-.38-.5,5.14,5.14,0,0,0-.06-.55C29.08,14.34,29,14.29,29,14.24Zm3.45,5.42h-.07c0,.12,0,.24-.07.37a3.48,3.48,0,0,1-.11,1,.3.3,0,0,0,0,.13c0,.21,0,.43,0,.64s0,.2-.19.19l-1,0a1.94,1.94,0,0,0-.31,0v.07a.8.8,0,0,0,.25.08l1.22-.05a.16.16,0,0,0,.11,0,.6.6,0,0,0,.16-.46,2.78,2.78,0,0,1,0-.5c0-.19.06-.38.06-.57s0-.47,0-.7A1.66,1.66,0,0,0,32.43,19.65Zm.12-5.42h.05c.16-.22.12-.49.16-.77l.59.08a.18.18,0,0,1,.17.22s0,.1.07.14l0,0c0-.09,0-.17,0-.26s0-.26-.24-.29-.4,0-.63-.06c0-.08,0-.17,0-.26s0-.23-.22-.24a1.46,1.46,0,0,1-.48,0,.85.85,0,0,0-.49,0,.79.79,0,0,0-.19.08v.06a10.17,10.17,0,0,0,1.21.08c0,.3,0,.59,0,.87a2.91,2.91,0,0,1,0,.29A1.24,1.24,0,0,0,32.55,14.23Zm12.78,4-.47-1.5h0l.23,2,1-.59v0ZM42,16.67a3.56,3.56,0,0,1,.37-.21c.26-.11.52-.21.79-.29a.36.36,0,0,0,.27-.3,7.1,7.1,0,0,0-1.25.48l-.22-1h-.05a2.93,2.93,0,0,0,0,.34c0,.17,0,.33.06.5S42,16.5,42,16.67Zm-13.56.24c.23-.15.36,0,.5.19a1.27,1.27,0,0,1,.21.31,1.51,1.51,0,0,0,.65.69,6.17,6.17,0,0,0,.74.42,2,2,0,0,0,1.56.07c.13,0,.13-.06.07-.15a1.85,1.85,0,0,1-2.11-.29c-.13-.1-.27-.19-.41-.28a1.33,1.33,0,0,1-.43-.46c-.12-.22-.32-.39-.46-.59a1.09,1.09,0,0,0-.36-.28Zm10.77,2.94h0a.82.82,0,0,0-.07-.31,11.37,11.37,0,0,0-.81-1c-.5-.53-1-1-1.53-1.53a.5.5,0,0,1-.07-.12l-.06.05a1,1,0,0,0,.1.16l.69.74a10.21,10.21,0,0,0,.8.88,4.2,4.2,0,0,1,.87,1.08Zm7.64-6.09a.74.74,0,0,0,.07.12c.1.11.08.2,0,.33-.3.5-.59,1-.88,1.52l-.06.12,0,0,1-1.44c.29-.4.28-.42-.16-.65Zm-1.13-.83c.13.14.26.3.4.45a.13.13,0,0,1,0,.17c-.07.14-.13.28-.19.42l-.25.55h0l.86-1.08Zm-6.37,3.41c-.23.55-.45,1.08-.67,1.63,0,0,0,.11.05.15a.12.12,0,0,0,.11,0,.21.21,0,0,0,.08-.12c0-.09,0-.18,0-.26.15-.43.31-.87.47-1.3v-.06Zm8.17-.76h0c0,.3-.07.6-.12.9a.23.23,0,0,1-.1.15l-.76.4a.51.51,0,0,0-.1.09l0,0,.9-.46c.26-.13.26-.13.24-.43,0-.05,0-.1,0-.16ZM33.35,19.91a5.77,5.77,0,0,0,0-1.76.39.39,0,0,0-.08.2c0,.35,0,.69.07,1Zm3-4.89,0,0-1.41,1.29,0,0Zm6.57,7.89v0l.19.17a4.4,4.4,0,0,0,.73-.9c-.18.18-.34.37-.51.56S43.11,23,42.91,22.9ZM40.64,23c-.11.1-.2.05-.29,0l-.19-.12,0,0,.33.4Zm-6-5.5h0l.14-.77C34.72,16.76,34.66,17,34.67,17.46Zm-2.39,5v0h-.41v0Z"/><path class="cls-1" d="M31.61,10.85c-.32.43-.62.89-.94,1.33a.47.47,0,0,0-.09.43s0,.07,0,.09l-1.09.13-.67,0h-.06c-.22,0-.47.06-.45.38h0c-.09,0-.22,0-.26,0a.48.48,0,0,0-.17.43.36.36,0,0,0,0,.16.56.56,0,0,1-.13.61s0,0,0,0a.76.76,0,0,0-.25.7.29.29,0,0,1-.15.33c-.07,0-.1.23-.08.33.08.43.19.87.31,1.3a.32.32,0,0,1-.06.29,2.59,2.59,0,0,0-.5,1.41c0,.22,0,.45,0,.69l-.13,0a9.37,9.37,0,0,0-4.09-.86A11.48,11.48,0,0,1,18,17.75a6.88,6.88,0,0,1-2.77-2,6.21,6.21,0,0,1-.89-1.78.48.48,0,0,0,0-.11h0a7.49,7.49,0,0,1-.37-1.41h5.2v1.12h1.71v-.87l1-.56-.67-1.23,2.64-3.37L20.08,2.72l.81-.61A.66.66,0,0,1,21.09,2l2.69-.16a.35.35,0,0,1,.18.06,44.41,44.41,0,0,1,6.21,6.4c.51.66,1,1.37,1.45,2.07A.33.33,0,0,1,31.61,10.85Z"/><path class="cls-1" d="M50.88,10.32l-.54.88c-.18.3-.36.59-.55.88a.35.35,0,0,1-.17.13l-1.41.45a.25.25,0,0,1-.19,0l-1-.72a.46.46,0,0,1-.13-.19,2.63,2.63,0,0,1-.09-.3.29.29,0,0,0-.44-.21l-1,.41a.25.25,0,0,1-.18,0,36.26,36.26,0,0,1-4.77-2.83c-.29-.21-.55-.46-.84-.69A.87.87,0,0,0,39.3,8c-.14,0-.09-.15-.08-.23s.1-.12.19-.09l.38.13c0-.13,0-.14-.18-.24a1.35,1.35,0,0,1-.22-.21A1,1,0,0,1,39.22,7c.05,0,.13,0,.15,0,.14.26.41.38.61.57l.39.38a.74.74,0,0,0,.17.13c-.38-1.36-.91-2.67-1.22-4.09l.13.1,8.09,7a.24.24,0,0,0,.25.06l3-.83Z"/><path class="cls-1" d="M24.71,1.42a2.43,2.43,0,0,1,.85-.28c.43-.08.44-.07.76.23,1.35,1.26,2.61,2.62,3.84,4l1.52,1.72a.26.26,0,0,1,.08.26.41.41,0,0,0,.08.36l1.08,1.52.1.14-.43.23A68.43,68.43,0,0,0,24.71,1.42Z"/><path class="cls-1" d="M26.8,1a10.94,10.94,0,0,1,3.3-.93l.46,4.11,1,.12c-.11.35-.33.68-.19,1.06Z"/><rect class="cls-1" x="22.16" y="7.95" width="0.55" height="0.55" transform="translate(3.87 -6.81) rotate(18.87)"/><rect class="cls-1" x="21.12" y="8.17" width="0.55" height="0.55" transform="translate(14.49 -13.5) rotate(51.01)"/><rect class="cls-1" x="15.05" y="6.19" width="1.78" height="1.78" transform="matrix(0.95, 0.32, -0.32, 0.95, 3.15, -4.77)"/><rect class="cls-1" x="13.29" y="9.81" width="1.76" height="1.76"/><rect class="cls-1" x="13.74" y="7.88" width="0.64" height="0.64" transform="translate(-1.68 12.35) rotate(-45)"/><rect class="cls-1" x="18.53" y="5.05" width="2.19" height="2.19" transform="translate(16.92 -14.24) rotate(65.05)"/><rect class="cls-1" x="17.35" y="4.09" width="0.83" height="0.83" transform="translate(11.26 -12.62) rotate(54.96)"/><path class="cls-1" d="M16.86,5.08l-.2-3.19a20.41,20.41,0,0,0-4,3.16l.21,1.1,4-1.07Z"/><rect class="cls-1" x="16.93" y="7.24" width="2.2" height="2.2" transform="translate(7.72 -8.64) rotate(33.9)"/><rect class="cls-1" x="21.09" y="5.18" width="0.92" height="0.92" transform="translate(7.43 -11.59) rotate(36)"/><rect class="cls-1" x="21.25" y="9.1" width="0.51" height="0.51" transform="translate(8.87 -10.4) rotate(33.9)"/><rect class="cls-1" x="11.74" y="11.25" width="1.31" height="1.31" transform="translate(-4.59 9.27) rotate(-35.04)"/><rect class="cls-1" x="11.7" y="13.31" width="1.31" height="1.31" transform="translate(-5.6 18.98) rotate(-64.13)"/><rect class="cls-1" x="11.11" y="10.63" width="0.65" height="0.65" transform="translate(-4.15 13.77) rotate(-54)"/><rect class="cls-1" x="20.15" y="3.47" width="1.11" height="1.11" transform="translate(25.79 24.49) rotate(-114.95)"/><rect class="cls-1" x="13.23" y="6.82" width="0.67" height="0.67" transform="translate(6.3 -6.35) rotate(33.9)"/><rect class="cls-1" x="11.68" y="5.01" width="0.67" height="0.67" transform="translate(5.02 -5.79) rotate(33.9)"/><rect class="cls-1" x="9.76" y="7.55" width="0.67" height="0.67" transform="translate(6.11 -4.29) rotate(33.9)"/><rect class="cls-1" x="10.84" y="12.1" width="0.67" height="0.67" transform="translate(8.84 -4.12) rotate(33.9)"/><rect class="cls-1" x="17.19" y="5.18" width="0.57" height="0.57"/><rect class="cls-1" x="15.69" y="9.32" width="1.57" height="1.57" transform="translate(-1.11 2.08) rotate(-7)"/><path class="cls-1" d="M13.73,12.28a7.49,7.49,0,0,0,.37,1.41h0l-1-.75.75-1,.53.38Z"/><rect class="cls-1" x="10.82" y="6.24" width="1.34" height="1.34" transform="translate(-1.48 3.52) rotate(-16.36)"/><rect class="cls-1" x="11.1" y="8.1" width="1.34" height="1.34" transform="translate(-2.9 9.36) rotate(-38.99)"/><rect class="cls-1" x="9.43" y="9.14" width="1.34" height="1.34" transform="translate(-3.92 8.54) rotate(-38.99)"/><rect class="cls-1" x="12.01" y="9.81" width="0.76" height="0.76"/><rect class="cls-1" x="10.1" y="10.79" width="0.76" height="0.76"/><rect class="cls-1" x="13.92" y="14.24" width="0.76" height="0.76"/><polygon class="cls-1" points="21.5 12.09 20.48 12.64 20 12.91 19.18 11.41 20.68 10.59 20.83 10.85 21.5 12.09"/><rect class="cls-1" x="21.15" y="7.16" width="0.73" height="0.73"/><rect class="cls-1" x="17.65" y="10.17" width="1.43" height="1.43" transform="translate(1.1 -1.68) rotate(5.39)"/><rect class="cls-1" x="22.3" y="6.84" width="0.75" height="0.75" transform="translate(0.78 -2.1) rotate(5.39)"/><rect class="cls-1" x="19.98" y="8.77" width="0.72" height="0.72"/><rect class="cls-1" x="17.47" y="1.89" width="1.8" height="1.8"/><path class="cls-1" d="M14.81,9q-.88.22-1.75.48l.74.55Z"/><path class="cls-1" d="M18.88,4q-.41.48-.81,1l.68.11Z"/><path class="cls-1" d="M17.77,5.85q-.16.51-.29,1L18,6.67Z"/><path class="cls-1" d="M19.6,9.29q-.16.51-.29,1l.51-.21Z"/><path class="cls-1" d="M17.58,11.17c-1.32.45-2,.78-2.2.85l1.92.62Z"/><path class="cls-1" d="M0,42.51A6,6,0,0,1,.13,41a1.87,1.87,0,0,1,.46-.81,2,2,0,0,1,.72-.46,2.69,2.69,0,0,1,1-.16,2.39,2.39,0,0,1,1.6.54,1.67,1.67,0,0,1,.64,1.33v.4H3a1.28,1.28,0,0,0-.2-.75.68.68,0,0,0-.57-.23.69.69,0,0,0-.6.23,2.38,2.38,0,0,0-.17,1.15v1.68a2.43,2.43,0,0,0,.17,1.13.66.66,0,0,0,.6.25.68.68,0,0,0,.59-.25A1.45,1.45,0,0,0,3,44.24v-.1H4.51v.45a1.88,1.88,0,0,1-.62,1.46,2.32,2.32,0,0,1-1.62.56,2.69,2.69,0,0,1-1-.16A2,2,0,0,1,.59,46a1.87,1.87,0,0,1-.46-.81A6,6,0,0,1,0,43.69Z"/><path class="cls-1" d="M6,46.44V39.76H7.53v5.4h2.93v1.29Z"/><path class="cls-1" d="M14.85,46.44l-.36-1.34h-2l-.35,1.34H10.7l1.92-6.69h1.75l1.92,6.69ZM12.78,44h1.44l-.71-3Z"/><path class="cls-1" d="M16.93,45.26l1.15-.81a2.33,2.33,0,0,0,.61.71,1.18,1.18,0,0,0,.69.21.91.91,0,0,0,.61-.2.63.63,0,0,0,.23-.5.72.72,0,0,0-.18-.48,1.52,1.52,0,0,0-.56-.37l-.38-.15A5.84,5.84,0,0,1,17.83,43a1.92,1.92,0,0,1-.55-.67,1.86,1.86,0,0,1-.19-.83,1.82,1.82,0,0,1,.6-1.43,2.31,2.31,0,0,1,1.6-.54,2.58,2.58,0,0,1,1.27.31,2.5,2.5,0,0,1,.92.9l-1.06.76a1.89,1.89,0,0,0-.56-.54,1.23,1.23,0,0,0-.65-.18.8.8,0,0,0-.52.16.52.52,0,0,0-.19.43.64.64,0,0,0,.19.45,1.84,1.84,0,0,0,.59.38l.48.2a5.47,5.47,0,0,1,1.19.6,1.79,1.79,0,0,1,.52.67,2.09,2.09,0,0,1,.18.88A1.9,1.9,0,0,1,21,46a2.41,2.41,0,0,1-1.67.57A2.79,2.79,0,0,1,18,46.28,2.86,2.86,0,0,1,16.93,45.26Z"/><path class="cls-1" d="M22.52,45.26l1.15-.81a2.33,2.33,0,0,0,.61.71,1.18,1.18,0,0,0,.69.21.91.91,0,0,0,.61-.2.63.63,0,0,0,.23-.5.72.72,0,0,0-.18-.48,1.52,1.52,0,0,0-.56-.37l-.38-.15A5.84,5.84,0,0,1,23.42,43a1.92,1.92,0,0,1-.55-.67,1.86,1.86,0,0,1-.19-.83,1.82,1.82,0,0,1,.6-1.43,2.31,2.31,0,0,1,1.6-.54,2.58,2.58,0,0,1,1.27.31,2.5,2.5,0,0,1,.92.9L26,41.52a1.89,1.89,0,0,0-.56-.54,1.23,1.23,0,0,0-.65-.18.8.8,0,0,0-.52.16.52.52,0,0,0-.19.43.64.64,0,0,0,.19.45,1.84,1.84,0,0,0,.59.38l.48.2a5.47,5.47,0,0,1,1.19.6,1.79,1.79,0,0,1,.52.67,2.09,2.09,0,0,1,.18.88A1.9,1.9,0,0,1,26.6,46a2.41,2.41,0,0,1-1.67.57,2.79,2.79,0,0,1-1.39-.34A2.86,2.86,0,0,1,22.52,45.26Z"/><path class="cls-1" d="M32.12,46.44l-.36-1.34h-2l-.35,1.34H28l1.92-6.69h1.75l1.92,6.69ZM30,44h1.44l-.71-3Z"/><path class="cls-1" d="M34.54,46.44V39.76h4.38V41H36v1.2h2v1.29H36v2.91Z"/><path class="cls-1" d="M39.8,39.76h1.68a9.87,9.87,0,0,1,1.33.06,2.3,2.3,0,0,1,.73.22,1.65,1.65,0,0,1,.69.68,2.08,2.08,0,0,1,.24,1,2,2,0,0,1-.31,1.14,1.75,1.75,0,0,1-.91.67l1.46,2.9H43.08l-1.3-2.72h-.5v2.72H39.8Zm1.48,1.13v1.76h.41a1.91,1.91,0,0,0,1-.19,1,1,0,0,0,0-1.37,1.91,1.91,0,0,0-1-.19Z"/><path class="cls-1" d="M45.32,46.44v-.63h.76V40.34h-.76v-.59h3v.59h-.77v5.47h.77v.63Z"/><path class="cls-1" d="M49.38,42.51a6,6,0,0,1,.13-1.5A1.87,1.87,0,0,1,50,40.2a2,2,0,0,1,.72-.46,2.69,2.69,0,0,1,1-.16,2.39,2.39,0,0,1,1.6.54,1.67,1.67,0,0,1,.64,1.33v.4H52.42a1.28,1.28,0,0,0-.2-.75.68.68,0,0,0-.57-.23.69.69,0,0,0-.6.23,2.38,2.38,0,0,0-.17,1.15v1.68A2.43,2.43,0,0,0,51,45.06a.66.66,0,0,0,.6.25.68.68,0,0,0,.59-.25,1.45,1.45,0,0,0,.18-.82v-.1h1.47v.45a1.88,1.88,0,0,1-.62,1.46,2.32,2.32,0,0,1-1.62.56,2.69,2.69,0,0,1-1-.16A2,2,0,0,1,50,46a1.87,1.87,0,0,1-.46-.81,6,6,0,0,1-.13-1.5Z"/><path class="cls-1" d="M59.1,46.44l-.36-1.34h-2l-.35,1.34H54.94l1.92-6.69h1.75l1.92,6.69ZM57,44h1.44l-.71-3Z"/></g></g></svg>